:version 1.10
:name ASF
:units
  mass 1
  length 1
  angle deg
:documentation
  ASF file generated by Kaydara
:root
  axis xyz
  order  tx ty tz rx ry rz
  position 0 0 0
  orientation 0 0 0
:bonedata
  begin
    id 1
    name RightUpLegDummy
    direction -0.718183 -0.695806 0.00816078
    length 4.904
    axis 0 0 0 xyz
  end
  begin
    id 2
    name RightUpLeg
    direction 3.53373e-006 -0.995788 0.0916898
    length 17.4976
    axis -3.49089 -0.000906625 0.000286804 xyz
    dof rx ry rz
  end
  begin
    id 3
    name RightLeg
    direction 0.00371092 -0.995096 -0.0988419
    length 16.5821
    axis 3.68512 0.0193738 -0.131023 xyz
    dof rx ry rz
  end
  begin
    id 4
    name RightFoot
    direction 0.00079151 -0.46099 0.887405
    length 3.77069
    axis 4.81691e-005 -0.120479 -0.188788 xyz
    dof rx ry rz
  end
  begin
    id 5
    name RightToes
    direction 0 0 0
    length 0
    axis 0 0 0 xyz
    dof rx ry rz
  end
  begin
    id 6
    name SpineDummy
    direction 8.3039e-015 1 4.57515e-016
    length 4.6813
    axis 0 0 0 xyz
  end
  begin
    id 7
    name Spine
    direction -3.15643e-008 0.999988 0.00495137
    length 10.1015
    axis -0.001389 0.000121418 2.40972e-006 xyz
    dof rx ry rz
  end
  begin
    id 8
    name Spine1
    direction 0 0 0
    length 0
    axis -0.001389 0.000121451 1.30017e-006 xyz
    dof rx ry rz
  end
  begin
    id 9
    name HEadDummy
    direction -1.99912e-008 0.999999 0.00127422
    length 3.43865
    axis -0.001389 0.000121451 1.30017e-006 xyz
  end
  begin
    id 10
    name HEad
    direction 0 0 0
    length 0
    axis 0 0 0 xyz
    dof rx ry rz
  end
  begin
    id 11
    name LeftShoulder1Dummy
    direction 0.998891 -0.0402509 -0.0244456
    length 3.5433
    axis -0.001389 0.000121451 1.30017e-006 xyz
  end
  begin
    id 12
    name LeftShoulder1
    direction 0.99951 -0.000327763 0.0313091
    length 4.05031
    axis -0.001389 0.000121451 1.30017e-006 xyz
    dof rx ry rz
  end
  begin
    id 13
    name LeftArm
    direction 0.998561 -0.00100056 -0.0536182
    length 10.3537
    axis -23.1894 0.134784 0.967509 xyz
    dof rx ry rz
  end
  begin
    id 14
    name LeftForeArm
    direction 0.998903 0.00866432 0.046012
    length 8.70632
    axis -9.91835 -0.06569 -0.177794 xyz
    dof rx ry rz
  end
  begin
    id 15
    name LeftHand
    direction 0 0 0
    length 0
    axis 0 0 0 xyz
    dof rx ry rz
  end
  begin
    id 16
    name RightShoulderDummy
    direction -0.998891 -0.0402509 -0.0244414
    length 3.5433
    axis -0.001389 0.000121451 1.30017e-006 xyz
  end
  begin
    id 17
    name RightShoulder
    direction -0.99951 -0.000327807 0.0313133
    length 4.05031
    axis 0.215806 0.000203643 -0.0068026 xyz
    dof rx ry rz
  end
  begin
    id 18
    name RightArm
    direction -0.998573 -0.000999564 -0.053403
    length 10.3947
    axis -23.2009 -0.134239 -0.964101 xyz
    dof rx ry rz
  end
  begin
    id 19
    name RightForeArm
    direction -0.998898 0.00868028 0.0461306
    length 8.68355
    axis -9.92322 0.0658061 0.178868 xyz
    dof rx ry rz
  end
  begin
    id 20
    name RightHand
    direction 0 0 0
    length 0
    axis 0 0 0 xyz
    dof rx ry rz
  end
  begin
    id 21
    name LeftUpLegDummy
    direction 0.718183 -0.695806 0.00816078
    length 4.904
    axis 0 0 0 xyz
  end
  begin
    id 22
    name LeftUpLeg
    direction -6.81752e-006 -0.995793 0.0916337
    length 17.4976
    axis -3.48766 0.00143442 -0.000524262 xyz
    dof rx ry rz
  end
  begin
    id 23
    name LeftLeg
    direction -0.00601358 -0.995091 -0.0987824
    length 16.5821
    axis 3.68178 -0.00654042 -0.000285133 xyz
    dof rx ry rz
  end
  begin
    id 24
    name LeftFoot
    direction -0.00417578 -0.460984 0.887399
    length 3.77069
    axis 1.87233e-006 4.66016e-005 -8.6538e-006 xyz
    dof rx ry rz
  end
  begin
    id 25
    name LeftToes
    direction 0 0 0
    length 0
    axis 0 0 0 xyz
    dof rx ry rz
  end
:hierarchy
  begin
    root RightUpLegDummy SpineDummy LeftUpLegDummy
    RightUpLegDummy RightUpLeg
    RightUpLeg RightLeg
    RightLeg RightFoot
    RightFoot RightToes
    SpineDummy Spine
    Spine Spine1
    Spine1 HEadDummy LeftShoulder1Dummy RightShoulderDummy
    HEadDummy HEad
    LeftShoulder1Dummy LeftShoulder1
    LeftShoulder1 LeftArm
    LeftArm LeftForeArm
    LeftForeArm LeftHand
    RightShoulderDummy RightShoulder
    RightShoulder RightArm
    RightArm RightForeArm
    RightForeArm RightHand
    LeftUpLegDummy LeftUpLeg
    LeftUpLeg LeftLeg
    LeftLeg LeftFoot
    LeftFoot LeftToes
  end

:SAMPLES-PER-SECOND 30
:FULLY-SPECIFIED
:DEGREES
632
root  33.3217 39.5587 9.52203 0.760498 77.4024 3.77368
RightUpLeg  -12.3665 -12.6029 -8.16291
RightLeg  18.5959 -0.157082 -0.130096
RightFoot  0.204876 -0.185007 1.84278
RightToes  0.000481921 0.542163 -0.142578
Spine  20.429 -1.95544 1.71895
Spine1  9.24626 -3.30954 5.48833
HEad  -0.580537 16.231 -10.402
LeftShoulder1  5.83705 -14.1866 -26.8799
LeftArm  -40.9484 -57.5004 8.70295
LeftForeArm  51.1994 -35.0506 -4.71379
LeftHand  -0.25398 0.0180481 5.50724
RightShoulder  5.87502 12.8691 29.9055
RightArm  5.74283 31.7201 54.7951
RightForeArm  179.401 63.3089 161.336
RightHand  -1.46993 6.81894 -14.3252
LeftUpLeg  -6.65451 24.8151 7.07462
LeftLeg  20.4917 9.53804 4.25828
LeftFoot  -5.1493 0.36118 -6.10229
LeftToes  1.06244e-005 4.65869e-005 -8.65518e-006
633
root  33.147 39.4457 9.39378 -4.04028 80.1034 -1.11121
RightUpLeg  -12.1894 -16.0428 -7.70776
RightLeg  19.0234 0.36138 0.213793
RightFoot  -0.0278515 -0.199078 2.00782
RightToes  0.000481921 0.542163 -0.142578
Spine  22.2144 -2.77604 -3.05145
Spine1  7.53177 -7.01645 13.3463
HEad  -0.236243 19.2066 -10.3557
LeftShoulder1  4.06529 -13.297 -17.3749
LeftArm  -44.1461 -65.1899 18.9799
LeftForeArm  51.4168 -12.096 -5.3211
LeftHand  -0.25398 0.0180481 5.50724
RightShoulder  5.94229 13.3993 29.1555
RightArm  5.92316 29.7119 55.4539
RightForeArm  179.962 63.0066 161.623
RightHand  -1.3553 6.54125 -13.5322
LeftUpLeg  -8.82211 21.5521 7.2609
LeftLeg  22.7746 9.8933 4.85476
LeftFoot  -5.68486 0.324279 -5.87218
LeftToes  1.06244e-005 4.65869e-005 -8.65518e-006
634
root  33.1053 39.3276 9.23553 -8.33362 80.6928 -5.78699
RightUpLeg  -12.7613 -17.8207 -7.16861
RightLeg  19.5667 1.23367 0.533898
RightFoot  -0.243785 -0.227528 2.3235
RightToes  0.000481921 0.542163 -0.142578
Spine  23.3713 -3.18617 -6.72658
Spine1  6.48027 -9.51774 18.9957
HEad  -1.08696 21.699 -10.7381
LeftShoulder1  1.99486 -10.2128 -6.8925
LeftArm  -41.8997 -67.9343 20.1189
LeftForeArm  61.3137 -8.7808 -7.8092
LeftHand  -0.25398 0.0180481 5.50724
RightShoulder  6.13006 13.6627 29.7201
RightArm  5.93988 27.5324 55.3002
RightForeArm  -177.147 62.5565 162.233
RightHand  -1.20324 6.48886 -12.1436
LeftUpLeg  -10.4846 20.9601 7.52949
LeftLeg  24.797 9.71716 5.19819
LeftFoot  -6.50173 0.280562 -5.71275
LeftToes  1.06244e-005 4.65869e-005 -8.65518e-006
635
root  33.2025 39.2552 9.00479 -9.3197 78.9417 -6.8894
RightUpLeg  -13.2254 -17.2576 -6.85673
RightLeg  19.6245 2.14279 0.832012
RightFoot  -0.108234 -0.260612 2.64106
RightToes  0.000481921 0.542163 -0.142578
Spine  23.57 -3.21608 -7.8245
Spine1  6.55846 -10.1766 20.4482
HEad  -1.83298 22.9705 -11.6371
LeftShoulder1  1.13723 -7.15325 -2.73285
LeftArm  -28.7947 -68.1212 15.4552
LeftForeArm  57.0618 -23.18 -4.16802
LeftHand  -0.25398 0.0180481 5.50724
RightShoulder  6.46461 13.6342 31.759
RightArm  5.20761 24.3872 53.2908
RightForeArm  -175.485 61.5391 163.099
RightHand  -1.30612 7.13665 -12.4671
LeftUpLeg  -10.7541 22.4911 7.83171
LeftLeg  26.1422 9.76494 5.5136
LeftFoot  -7.3164 0.235808 -5.45959
LeftToes  1.06244e-005 4.65869e-005 -8.65518e-006
636
root  33.3925 39.2547 8.69528 -8.28467 76.4624 -5.36011
RightUpLeg  -12.7697 -15.6609 -7.28086
RightLeg  19.0029 2.92935 1.16386
RightFoot  0.350299 -0.306646 3.01611
RightToes  0.000481921 0.542163 -0.142578
Spine  23.1081 -3.0925 -6.78854
Spine1  7.74989 -9.58941 18.7125
HEad  -1.529 22.8525 -12.4983
LeftShoulder1  1.42466 -7.10063 -5.57018
LeftArm  -36.969 -65.045 12.3434
LeftForeArm  55.2316 -42.8314 -6.68965
LeftHand  -0.25398 0.0180481 5.50724
RightShoulder  6.76572 13.4729 33.8901
RightArm  3.78632 19.9058 49.5157
RightForeArm  -179.491 59.8376 163.855
RightHand  -1.70748 7.87483 -15.279
LeftUpLeg  -9.57647 23.9673 7.89794
LeftLeg  26.5862 10.5178 6.0078
LeftFoot  -7.85454 0.205548 -5.20743
LeftToes  1.06244e-005 4.65869e-005 -8.65518e-006
637
root  33.6374 39.3295 8.35543 -6.23584 74.5364 -2.65991
RightUpLeg  -11.733 -13.7198 -8.43759
RightLeg  17.7777 3.10391 1.25537
RightFoot  0.959594 -0.396137 3.73242
RightToes  0.000481921 0.542163 -0.142578
Spine  22.221 -2.92502 -5.52812
Spine1  9.34648 -8.7757 16.4457
HEad  -0.565888 22.0185 -13.047
LeftShoulder1  2.06493 -8.75942 -9.4931
LeftArm  -37.5366 -60.1043 3.51162
LeftForeArm  50.739 -64.2218 -19.313
LeftHand  -0.25398 0.0180481 5.50724
RightShoulder  6.78919 13.2244 34.6152
RightArm  2.95482 14.49 45.2327
RightForeArm  172.18 58.3739 164.027
RightHand  -2.09268 8.0823 -18.3471
LeftUpLeg  -7.77923 24.4944 7.28903
LeftLeg  25.9145 11.779 6.49469
LeftFoot  -8.00885 0.196321 -5.09687
LeftToes  1.06244e-005 4.65869e-005 -8.65518e-006
638
root  33.9268 39.4594 8.03889 -3.2135 73.2953 0.621826
RightUpLeg  -10.7513 -11.4115 -9.88662
RightLeg  16.0577 2.43618 0.895066
RightFoot  1.61502 -0.535952 4.81218
RightToes  0.000481921 0.542163 -0.142578
Spine  21.0712 -2.83451 -5.14462
Spine1  10.2627 -8.29343 15.0295
HEad  0.466066 21.5175 -13.5239
LeftShoulder1  2.53934 -9.80392 -11.9826
LeftArm  -30.6976 -53.6712 -10.9044
LeftForeArm  95.019 -80.269 -67.9977
LeftHand  -0.25398 0.0180481 5.50724
RightShoulder  6.43962 12.7066 33.7615
RightArm  3.96595 8.74858 41.8093
RightForeArm  165.06 57.9431 163.667
RightHand  -2.03518 7.32903 -18.8137
LeftUpLeg  -6.09456 24.9687 6.03384
LeftLeg  24.1673 12.8 6.53455
LeftFoot  -7.84377 0.19721 -4.9205
LeftToes  1.06244e-005 4.65869e-005 -8.65518e-006
639
root  34.2466 39.5993 7.75262 -0.0263672 72.7527 3.71301
RightUpLeg  -9.8431 -9.7644 -11.2966
RightLeg  14.1382 1.69062 0.356542
RightFoot  2.18692 -0.684088 5.88884
RightToes  0.000481921 0.542163 -0.142578
Spine  19.8241 -3.13094 -4.98958
Spine1  10.284 -8.18244 13.7988
HEad  1.59473 21.8037 -14.0465
LeftShoulder1  3.2242 -10.5509 -16.1564
LeftArm  -21.9717 -44.7575 -23.3117
LeftForeArm  -178.741 -74.223 -148.774
LeftHand  -0.25398 0.0180481 5.50724
RightShoulder  5.88078 11.904 32.2155
RightArm  6.41784 3.38144 40.3735
RightForeArm  161.667 58.1658 163.239
RightHand  -1.51665 5.67815 -16.1492
LeftUpLeg  -4.70415 26.0987 4.65409
LeftLeg  21.881 12.7788 5.92026
LeftFoot  -7.55785 0.189459 -4.36614
LeftToes  1.06244e-005 4.65869e-005 -8.65518e-006
640
root  34.5462 39.6948 7.47662 2.89148 73.249 6.49622
RightUpLeg  -8.84961 -9.74284 -12.7313
RightLeg  12.6342 1.38559 0.0290709
RightFoot  2.39878 -0.806262 6.82149
RightToes  0.000481921 0.542163 -0.142578
Spine  18.4649 -3.91849 -4.15549
Spine1  10.3716 -8.25813 11.7359
HEad  2.77816 22.1904 -14.0854
LeftShoulder1  4.64643 -11.8533 -23.9535
LeftArm  -16.2788 -33.9385 -28.0726
LeftForeArm  -163.834 -64.173 -162.622
LeftHand  -0.25398 0.0180481 5.50724
RightShoulder  5.44844 11.2241 31.045
RightArm  8.31476 -1.17303 41.674
RightForeArm  160.888 58.2652 163.111
RightHand  -1.05818 4.4964 -12.7647
LeftUpLeg  -3.71549 27.3058 3.44758
LeftLeg  19.9576 11.6062 4.93513
LeftFoot  -7.42632 0.166014 -3.55009
LeftToes  1.06244e-005 4.65869e-005 -8.65518e-006
641
root  34.7435 39.7017 7.21129 5.99402 74.6921 9.60266
RightUpLeg  -8.08813 -10.5346 -14.2773
RightLeg  12.3488 0.947195 -0.129719
RightFoot  1.98857 -0.901547 7.82534
RightToes  0.000481921 0.542163 -0.142578
Spine  17.1923 -4.66763 -2.73729
Spine1  11.1363 -8.08691 8.92382
HEad  3.50492 21.4036 -13.1114
LeftShoulder1  6.42382 -13.2234 -32.3888
LeftArm  -14.5628 -23.8597 -28.5396
LeftForeArm  -167.703 -58.7355 -165.572
LeftHand  -0.25398 0.0180481 5.50724
RightShoulder  5.35515 11.0112 30.9396
RightArm  7.92481 -4.70957 44.8856
RightForeArm  161.832 57.8104 163.47
RightHand  -0.873071 4.06201 -11.0373
LeftUpLeg  -3.41031 27.6362 2.32113
LeftLeg  19.2438 10.0969 4.12528
LeftFoot  -7.64885 0.13925 -2.89389
LeftToes  1.06244e-005 4.65869e-005 -8.65518e-006
642
root  34.7871 39.5927 6.97835 9.31665 76.6736 13.1707
RightUpLeg  -7.94727 -10.9039 -15.6547
RightLeg  13.8672 -0.251663 -0.458595
RightFoot  0.95946 -0.935164 8.72274
RightToes  0.000481921 0.542163 -0.142578
Spine  16.7088 -4.72014 -1.3918
Spine1  11.9117 -7.33505 6.60782
HEad  3.47671 18.8204 -11.5032
LeftShoulder1  7.68107 -14.0277 -37.6993
LeftArm  -13.7968 -16.257 -31.1097
LeftForeArm  -173.529 -56.3459 -166.33
LeftHand  -0.25398 0.0180481 5.50724
RightShoulder  5.45215 11.038 31.544
RightArm  5.5417 -6.44354 47.9176
RightForeArm  164.01 56.4973 164.408
RightHand  -0.77592 3.12742 -10.8538
LeftUpLeg  -3.99031 26.9844 1.25815
LeftLeg  20.2273 8.81038 3.90783
LeftFoot  -8.2899 0.116472 -2.50417
LeftToes  1.06244e-005 4.65869e-005 -8.65518e-006
643
root  34.7086 39.3945 6.80203 13.0254 79.5088 17.4269
RightUpLeg  -7.99962 -11.1601 -16.7353
RightLeg  16.7679 -2.18895 -1.03656
RightFoot  -0.285465 -0.866491 8.90724
RightToes  0.000481921 0.542163 -0.142578
Spine  17.2491 -4.12541 -0.659725
Spine1  11.962 -6.40002 5.959
HEad  3.22295 14.9804 -10.0949
LeftShoulder1  8.30832 -14.4867 -39.9408
LeftArm  -12.1967 -11.6889 -35.9869
LeftForeArm  -175.335 -55.3778 -166.662
LeftHand  -0.25398 0.0180481 5.50724
RightShoulder  5.48423 10.9156 32.0885
RightArm  2.75925 -5.33254 48.8169
RightForeArm  165.124 54.2836 165.663
RightHand  -0.637547 1.46771 -10.9856
LeftUpLeg  -5.1395 24.8188 0.469536
LeftLeg  22.4982 8.1515 4.02792
LeftFoot  -9.11423 0.0944585 -2.03211
LeftToes  1.06244e-005 4.65869e-005 -8.65518e-006
644
root  34.5883 39.1963 6.70328 28.2845 83.7433 33.343
RightUpLeg  -7.3081 -13.0345 -17.7552
RightLeg  19.6116 -4.00449 -1.78692
RightFoot  -1.25028 -0.762046 8.52073
RightToes  0.000481921 0.542163 -0.142578
Spine  17.9235 -3.5463 -0.667616
Spine1  11.6024 -6.02519 6.93688
HEad  3.60725 10.8581 -9.14638
LeftShoulder1  8.73387 -14.948 -41.0213
LeftArm  -10.0319 -10.3242 -39.8281
LeftForeArm  -174.181 -54.9637 -166.948
LeftHand  -0.25398 0.0180481 5.50724
RightShoulder  5.42496 10.6059 32.5055
RightArm  0.328347 -1.29858 47.3051
RightForeArm  164.382 52.0335 166.681
RightHand  -0.384556 -0.917541 -9.89052
LeftUpLeg  -6.33833 21.6378 -0.126459
LeftLeg  24.681 7.03434 3.8535
LeftFoot  -9.66287 0.0759322 -1.22693
LeftToes  1.06244e-005 4.65869e-005 -8.65518e-006
645
root  34.4714 39.1014 6.70071 84.0795 86.6491 89.4697
RightUpLeg  -5.63408 -16.2139 -18.9639
RightLeg  21.064 -5.78785 -2.66818
RightFoot  -1.67827 -0.736693 8.56494
RightToes  0.000481921 0.542163 -0.142578
Spine  17.9158 -3.31125 -0.959312
Spine1  11.3358 -6.13628 8.20764
HEad  4.9702 6.72428 -8.26538
LeftShoulder1  9.02746 -15.292 -41.6732
LeftArm  -7.64596 -11.8076 -41.5354
LeftForeArm  -172.986 -55.1253 -166.963
LeftHand  -0.25398 0.0180481 5.50724
RightShoulder  5.38477 10.3352 32.9657
RightArm  -2.61816 4.34004 44.8218
RightForeArm  165.718 50.9455 167.256
RightHand  -0.0629673 -5.3676 -5.73721
LeftUpLeg  -7.29829 18.3158 -0.806698
LeftLeg  25.4879 4.98774 2.93204
LeftFoot  -9.47395 0.0605126 -0.249522
LeftToes  1.06244e-005 4.65869e-005 -8.65518e-006
646
root  34.3399 39.1494 6.7784 149.849 83.2671 154.913
RightUpLeg  -3.91222 -18.6579 -19.9327
RightLeg  21.0058 -8.31253 -3.71943
RightFoot  -1.4805 -0.801292 9.14599
RightToes  0.000481921 0.542163 -0.142578
Spine  17.4248 -3.00749 -0.199863
Spine1  10.9814 -5.54564 7.91906
HEad  6.95258 1.75381 -7.04464
LeftShoulder1  8.99256 -15.3112 -41.4502
LeftArm  -4.49633 -15.2789 -42.9026
LeftForeArm  -173.423 -56.6404 -166.168
LeftHand  -0.25398 0.0180481 5.50724
RightShoulder  5.38004 10.3472 32.9001
RightArm  -7.65425 9.86419 41.9083
RightForeArm  173.674 50.707 167.928
RightHand  -0.185261 -10.068 2.55143
LeftUpLeg  -8.12313 15.7145 -1.66021
LeftLeg  24.6428 2.58412 1.63827
LeftFoot  -8.33672 0.0322874 0.661557
LeftToes  1.06244e-005 4.65869e-005 -8.65518e-006
